<?xml version="1.0" encoding="utf-8"?>
<!-- Generator: Adobe Illustrator 17.0.0, SVG Export Plug-In . SVG Version: 6.00 Build 0)  -->
<!DOCTYPE svg PUBLIC "-//W3C//DTD SVG 1.1//EN" "http://www.w3.org/Graphics/SVG/1.1/DTD/svg11.dtd">
<svg version="1.1" id="Layer_1" xmlns="http://www.w3.org/2000/svg" xmlns:xlink="http://www.w3.org/1999/xlink" x="0px" y="0px"
	 width="200px" height="200px" viewBox="0 0 200 200" enable-background="new 0 0 200 200" xml:space="preserve">
<symbol  id="New_Symbol" viewBox="-325.5 -395.371 651 790.741">
	<path fill="#0C0C0C" d="M271.843,111.629H187.5v65.657c0,133.616-61.61,212.085-184.5,212.085s-184.5-78.469-184.5-212.085v-65.657
		h-90.7c-25.457,0-47.3-28.67-47.3-54.217v-359.621c0-25.357,20.35-52.463,44.479-60.207l55.471-18.277
		c24.129-7.836,64.918-14.678,90.276-14.678h267.41c25.358,0,65.857,6.842,89.986,14.678l54.34,18.04
		c24.127,7.744,43.037,35.087,43.037,60.444V57.413C325.5,82.959,297.312,111.629,271.843,111.629z M-89.5,195.729
		c0,66.673,37.056,101.432,92.5,101.432c55.456,0,92.5-34.759,92.5-101.432v-84.099h-185V195.729z M-2.83-64.727
		c-0.666-1.492-2.003-0.435-3.538,2.622c-0.177-0.568-0.388-1.109-0.651-1.611c0,0,0.188,0.716,0.457,2.013
		c-2.527,5.253-5.523,15.757-6.933,29.188C-26.696-4.284-50.1,27.488-27.34,10.039c6.863-5.262,11.737-11.526,15.176-18.144
		C-8.248,8.443,0.567,25.765,5.31,34.351c0.942,2.11,1.989,3.968,3.162,5.502c0,0-1.252-2.045-3.162-5.502
		C-6.574,7.699-1.013-60.647-2.83-64.727z M-5.5-82.908c0-73.24,0-144.793,0-217.897C-45.5-242.474-45.5-139.97-5.5-82.908z
		 M-136.488-195.086c-1.245,45.423,30.041,93.645,68.901,104.612c-29.619-26.189-49.226-58.244-48.112-103.134
		c1.067-43.311,21.814-74.424,49.872-102.798C-106.516-286.605-135.138-244.512-136.488-195.086z M-106.641-180.825
		c2.433,41.249,34.338,84.201,74.621,97.883c-29.761-31.648-51.753-65.505-49.092-112.666
		c2.561-45.262,24.389-79.454,49.226-111.822C-80.103-282.655-109.648-231.861-106.641-180.825z M-72.223-184.041
		c2.535,51.373,32.031,81.701,65.203,108.678c-53.783-76.919-41.845-155.643-4.634-235.755
		C-45.488-286.79-74.34-227.017-72.223-184.041z M4.628-330.483c-3.303-4.403-18.714-7.706-16.513-4.403
		c2.202,3.302,6.482,20.595,10.328,20.432C9.874-314.94,7.93-326.08,4.628-330.483z M7.18-24.347
		c1.493,10.748,11.685,39.371,11.685,39.371c7.676,23.327,30.854-4.985,19.075-3.884C26.16,12.241,5.685-35.095,7.18-24.347z
		 M25.635-91.517c69.051-59.214,61.935-144.108-6.891-214.445c14.802,33.322,26.233,67.788,27.998,105.57
		C48.539-161.951,40.768-126.006,25.635-91.517z M10.625-64.818c0,0-6.397,27,19.408,39.37
		C55.838-13.08,10.625-64.818,10.625-64.818z M6.5-84.523c39-50.642,41-152.035,0-216.158C6.5-227.764,6.5-156.011,6.5-84.523z
		 M18.744-342.23c-0.152,4.404-5.354,22.633-5.354,22.633C19.742-318.307,18.896-346.633,18.744-342.23z M83.254-191.113
		c0.989,48.94-23.746,82.909-56.037,114.221c49.676-20.812,80.762-64.26,81.43-111.273c0.668-47.785-31.442-99.074-77.521-121.214
		C59.271-274.429,82.295-238.486,83.254-191.113z M61.049-303.476c74.562,62.706,78.437,166.165-3.93,222.644
		c45.423-8.411,86.897-58.47,88.211-106.45C146.914-245.567,115.73-288.567,61.049-303.476z"/>
	<path fill="#F8FFF8" d="M265.843,117.629H181.5v65.657c0,133.616-61.61,212.085-184.5,212.085s-184.5-78.469-184.5-212.085v-65.657
		h-90.7c-25.457,0-47.3-28.67-47.3-54.217v-359.621c0-25.357,20.35-52.463,44.479-60.207l55.471-18.277
		c24.129-7.836,64.918-14.678,90.276-14.678h267.41c25.358,0,65.857,6.842,89.986,14.678l54.34,18.04
		c24.127,7.744,43.037,35.087,43.037,60.444V63.413C319.5,88.959,291.312,117.629,265.843,117.629z M-95.5,201.729
		c0,66.673,37.056,101.432,92.5,101.432c55.456,0,92.5-34.759,92.5-101.432v-84.099h-185V201.729z M-8.83-58.727
		c-0.666-1.492-2.003-0.435-3.538,2.622c-0.177-0.568-0.388-1.109-0.651-1.611c0,0,0.188,0.716,0.457,2.013
		c-2.527,5.253-5.523,15.757-6.933,29.188C-32.696,1.716-56.1,33.488-33.34,16.039c6.863-5.262,11.737-11.526,15.176-18.144
		c3.916,16.548,12.731,33.87,17.475,42.456c0.942,2.11,1.989,3.968,3.162,5.502c0,0-1.252-2.045-3.162-5.502
		C-12.574,13.699-7.013-54.647-8.83-58.727z M-11.5-76.908c0-73.24,0-144.793,0-217.897C-51.5-236.474-51.5-133.97-11.5-76.908z
		 M-142.488-189.086c-1.245,45.423,30.041,93.645,68.901,104.612c-29.619-26.189-49.226-58.244-48.112-103.134
		c1.067-43.311,21.814-74.424,49.872-102.798C-112.516-280.605-141.138-238.512-142.488-189.086z M-112.641-174.825
		c2.433,41.249,34.338,84.201,74.621,97.883c-29.761-31.648-51.753-65.505-49.092-112.666
		c2.561-45.262,24.389-79.454,49.226-111.822C-86.103-276.655-115.648-225.861-112.641-174.825z M-78.223-178.041
		c2.535,51.373,32.031,81.701,65.203,108.678c-53.783-76.919-41.845-155.643-4.634-235.755
		C-51.488-280.79-80.34-221.017-78.223-178.041z M-1.372-324.483c-3.303-4.403-18.714-7.706-16.513-4.403
		c2.202,3.302,6.483,20.595,10.328,20.432C3.874-308.94,1.93-320.08-1.372-324.483z M1.18-18.347
		C2.673-7.599,12.865,21.023,12.865,21.023c7.676,23.327,30.854-4.985,19.075-3.884C20.16,18.241-0.315-29.095,1.18-18.347z
		 M19.635-85.517c69.051-59.214,61.935-144.108-6.891-214.445c14.802,33.322,26.233,67.788,27.998,105.57
		C42.539-155.951,34.768-120.006,19.635-85.517z M4.625-58.818c0,0-6.397,27,19.408,39.37C49.838-7.08,4.625-58.818,4.625-58.818z
		 M0.5-78.523c39-50.642,41-152.035,0-216.158C0.5-221.764,0.5-150.011,0.5-78.523z M12.744-336.23
		c-0.152,4.404-5.354,22.633-5.354,22.633C13.742-312.307,12.896-340.633,12.744-336.23z M77.254-185.113
		c0.989,48.94-23.746,82.909-56.037,114.221c49.676-20.812,80.762-64.26,81.43-111.273c0.668-47.785-31.442-99.074-77.521-121.214
		C53.271-268.429,76.295-232.486,77.254-185.113z M55.049-297.476c74.562,62.706,78.437,166.165-3.93,222.644
		c45.423-8.411,86.897-58.47,88.211-106.45C140.914-239.567,109.73-282.567,55.049-297.476z"/>
</symbol>
<use xlink:href="#New_Symbol"  width="651" height="790.741" x="-325.5" y="-395.371" transform="matrix(0.2529 0 0 -0.2529 100 100)" overflow="visible"/>
</svg>
